  0
SECTION
  2
HEADER
  9
$ACADVER
  1
AC1024
  9
$ACADMAINTVER
 70
6
  9
$DWGCODEPAGE
  3
ANSI_1252
  9
$LASTSAVEDBY
  1
ezdxf
  9
$INSBASE
 10
0.0
 20
0.0
 30
0.0
  9
$EXTMIN
 10
1e+20
 20
1e+20
 30
1e+20
  9
$EXTMAX
 10
-1e+20
 20
-1e+20
 30
-1e+20
  9
$LIMMIN
 10
0.0
 20
0.0
  9
$LIMMAX
 10
420.0
 20
297.0
  9
$ORTHOMODE
 70
0
  9
$REGENMODE
 70
1
  9
$FILLMODE
 70
1
  9
$QTEXTMODE
 70
0
  9
$MIRRTEXT
 70
1
  9
$LTSCALE
 40
1.0
  9
$ATTMODE
 70
1
  9
$TEXTSIZE
 40
2.5
  9
$TRACEWID
 40
1.0
  9
$TEXTSTYLE
  7
Standard
  9
$CLAYER
  8
0
  9
$CELTYPE
  6
ByLayer
  9
$CECOLOR
 62
256
  9
$CELTSCALE
 40
1.0
  9
$DISPSILH
 70
0
  9
$DIMSCALE
 40
1.0
  9
$DIMASZ
 40
2.5
  9
$DIMEXO
 40
0.625
  9
$DIMDLI
 40
3.75
  9
$DIMRND
 40
0.0
  9
$DIMDLE
 40
0.0
  9
$DIMEXE
 40
1.25
  9
$DIMTP
 40
0.0
  9
$DIMTM
 40
0.0
  9
$DIMTXT
 40
2.5
  9
$DIMCEN
 40
2.5
  9
$DIMTSZ
 40
0.0
  9
$DIMTOL
 70
0
  9
$DIMLIM
 70
0
  9
$DIMTIH
 70
0
  9
$DIMTOH
 70
0
  9
$DIMSE1
 70
0
  9
$DIMSE2
 70
0
  9
$DIMTAD
 70
1
  9
$DIMZIN
 70
8
  9
$DIMBLK
  1

  9
$DIMASO
 70
1
  9
$DIMSHO
 70
1
  9
$DIMPOST
  1

  9
$DIMAPOST
  1

  9
$DIMALT
 70
0
  9
$DIMALTD
 70
3
  9
$DIMALTF
 40
0.03937007874
  9
$DIMLFAC
 40
1.0
  9
$DIMTOFL
 70
1
  9
$DIMTVP
 40
0.0
  9
$DIMTIX
 70
0
  9
$DIMSOXD
 70
0
  9
$DIMSAH
 70
0
  9
$DIMBLK1
  1

  9
$DIMBLK2
  1

  9
$DIMSTYLE
  2
ISO-25
  9
$DIMCLRD
 70
0
  9
$DIMCLRE
 70
0
  9
$DIMCLRT
 70
0
  9
$DIMTFAC
 40
1.0
  9
$DIMGAP
 40
0.625
  9
$DIMJUST
 70
0
  9
$DIMSD1
 70
0
  9
$DIMSD2
 70
0
  9
$DIMTOLJ
 70
0
  9
$DIMTZIN
 70
8
  9
$DIMALTZ
 70
0
  9
$DIMALTTZ
 70
0
  9
$DIMUPT
 70
0
  9
$DIMDEC
 70
2
  9
$DIMTDEC
 70
2
  9
$DIMALTU
 70
2
  9
$DIMALTTD
 70
3
  9
$DIMTXSTY
  7
Standard
  9
$DIMAUNIT
 70
0
  9
$DIMADEC
 70
0
  9
$DIMALTRND
 40
0.0
  9
$DIMAZIN
 70
0
  9
$DIMDSEP
 70
44
  9
$DIMATFIT
 70
3
  9
$DIMFRAC
 70
0
  9
$DIMLDRBLK
  1

  9
$DIMLUNIT
 70
2
  9
$DIMLWD
 70
-2
  9
$DIMLWE
 70
-2
  9
$DIMTMOVE
 70
0
  9
$DIMFXL
 40
1.0
  9
$DIMFXLON
 70
0
  9
$DIMJOGANG
 40
0.785398163397
  9
$DIMTFILL
 70
0
  9
$DIMTFILLCLR
 70
0
  9
$DIMARCSYM
 70
0
  9
$DIMLTYPE
  6

  9
$DIMLTEX1
  6

  9
$DIMLTEX2
  6

  9
$DIMTXTDIRECTION
 70
0
  9
$LUNITS
 70
2
  9
$LUPREC
 70
4
  9
$SKETCHINC
 40
1.0
  9
$FILLETRAD
 40
10.0
  9
$AUNITS
 70
0
  9
$AUPREC
 70
2
  9
$MENU
  1
.
  9
$ELEVATION
 40
0.0
  9
$PELEVATION
 40
0.0
  9
$THICKNESS
 40
0.0
  9
$LIMCHECK
 70
0
  9
$CHAMFERA
 40
0.0
  9
$CHAMFERB
 40
0.0
  9
$CHAMFERC
 40
0.0
  9
$CHAMFERD
 40
0.0
  9
$SKPOLY
 70
0
  9
$TDCREATE
 40
2460977.4682291667
  9
$TDUCREATE
 40
2458532.153996898
  9
$TDUPDATE
 40
2460977.4682407407
  9
$TDUUPDATE
 40
2458532.1544311
  9
$TDINDWG
 40
0.0
  9
$TDUSRTIMER
 40
0.0
  9
$USRTIMER
 70
1
  9
$ANGBASE
 50
0.0
  9
$ANGDIR
 70
0
  9
$PDMODE
 70
0
  9
$PDSIZE
 40
0.0
  9
$PLINEWID
 40
0.0
  9
$SPLFRAME
 70
0
  9
$SPLINETYPE
 70
6
  9
$SPLINESEGS
 70
8
  9
$HANDSEED
  5
4E
  9
$SURFTAB1
 70
6
  9
$SURFTAB2
 70
6
  9
$SURFTYPE
 70
6
  9
$SURFU
 70
6
  9
$SURFV
 70
6
  9
$UCSBASE
  2

  9
$UCSNAME
  2

  9
$UCSORG
 10
0.0
 20
0.0
 30
0.0
  9
$UCSXDIR
 10
1.0
 20
0.0
 30
0.0
  9
$UCSYDIR
 10
0.0
 20
1.0
 30
0.0
  9
$UCSORTHOREF
  2

  9
$UCSORTHOVIEW
 70
0
  9
$UCSORGTOP
 10
0.0
 20
0.0
 30
0.0
  9
$UCSORGBOTTOM
 10
0.0
 20
0.0
 30
0.0
  9
$UCSORGLEFT
 10
0.0
 20
0.0
 30
0.0
  9
$UCSORGRIGHT
 10
0.0
 20
0.0
 30
0.0
  9
$UCSORGFRONT
 10
0.0
 20
0.0
 30
0.0
  9
$UCSORGBACK
 10
0.0
 20
0.0
 30
0.0
  9
$PUCSBASE
  2

  9
$PUCSNAME
  2

  9
$PUCSORG
 10
0.0
 20
0.0
 30
0.0
  9
$PUCSXDIR
 10
1.0
 20
0.0
 30
0.0
  9
$PUCSYDIR
 10
0.0
 20
1.0
 30
0.0
  9
$PUCSORTHOREF
  2

  9
$PUCSORTHOVIEW
 70
0
  9
$PUCSORGTOP
 10
0.0
 20
0.0
 30
0.0
  9
$PUCSORGBOTTOM
 10
0.0
 20
0.0
 30
0.0
  9
$PUCSORGLEFT
 10
0.0
 20
0.0
 30
0.0
  9
$PUCSORGRIGHT
 10
0.0
 20
0.0
 30
0.0
  9
$PUCSORGFRONT
 10
0.0
 20
0.0
 30
0.0
  9
$PUCSORGBACK
 10
0.0
 20
0.0
 30
0.0
  9
$USERI1
 70
0
  9
$USERI2
 70
0
  9
$USERI3
 70
0
  9
$USERI4
 70
0
  9
$USERI5
 70
0
  9
$USERR1
 40
0.0
  9
$USERR2
 40
0.0
  9
$USERR3
 40
0.0
  9
$USERR4
 40
0.0
  9
$USERR5
 40
0.0
  9
$WORLDVIEW
 70
1
  9
$SHADEDGE
 70
3
  9
$SHADEDIF
 70
70
  9
$TILEMODE
 70
1
  9
$MAXACTVP
 70
64
  9
$PINSBASE
 10
0.0
 20
0.0
 30
0.0
  9
$PLIMCHECK
 70
0
  9
$PEXTMIN
 10
1e+20
 20
1e+20
 30
1e+20
  9
$PEXTMAX
 10
-1e+20
 20
-1e+20
 30
-1e+20
  9
$PLIMMIN
 10
0.0
 20
0.0
  9
$PLIMMAX
 10
420.0
 20
297.0
  9
$UNITMODE
 70
0
  9
$VISRETAIN
 70
1
  9
$PLINEGEN
 70
0
  9
$PSLTSCALE
 70
1
  9
$TREEDEPTH
 70
3020
  9
$CMLSTYLE
  2
Standard
  9
$CMLJUST
 70
0
  9
$CMLSCALE
 40
20.0
  9
$PROXYGRAPHICS
 70
1
  9
$MEASUREMENT
 70
1
  9
$CELWEIGHT
370
-1
  9
$ENDCAPS
280
0
  9
$JOINSTYLE
280
0
  9
$LWDISPLAY
290
0
  9
$INSUNITS
 70
4
  9
$HYPERLINKBASE
  1

  9
$STYLESHEET
  1

  9
$XEDIT
290
1
  9
$CEPSNTYPE
380
0
  9
$PSTYLEMODE
290
1
  9
$FINGERPRINTGUID
  2
{B671280A-9B29-4B73-BC3E-7AD3BE00B771}
  9
$VERSIONGUID
  2
{460F7295-4DDA-4A30-94AC-8B005A320212}
  9
$EXTNAMES
290
1
  9
$PSVPSCALE
 40
0.0
  9
$OLESTARTUP
290
0
  9
$SORTENTS
280
127
  9
$INDEXCTL
280
0
  9
$HIDETEXT
280
1
  9
$XCLIPFRAME
280
1
  9
$HALOGAP
280
0
  9
$OBSCOLOR
 70
257
  9
$OBSLTYPE
280
0
  9
$INTERSECTIONDISPLAY
280
0
  9
$INTERSECTIONCOLOR
 70
257
  9
$DIMASSOC
280
2
  9
$PROJECTNAME
  1

  9
$CAMERADISPLAY
290
0
  9
$LENSLENGTH
 40
50.0
  9
$CAMERAHEIGHT
 40
0.0
  9
$STEPSPERSEC
 40
24.0
  9
$STEPSIZE
 40
100.0
  9
$3DDWFPREC
 40
2.0
  9
$PSOLWIDTH
 40
0.005
  9
$PSOLHEIGHT
 40
0.08
  9
$LOFTANG1
 40
1.570796326795
  9
$LOFTANG2
 40
1.570796326795
  9
$LOFTMAG1
 40
0.0
  9
$LOFTMAG2
 40
0.0
  9
$LOFTPARAM
 70
7
  9
$LOFTNORMALS
280
1
  9
$LATITUDE
 40
37.795
  9
$LONGITUDE
 40
-122.394
  9
$NORTHDIRECTION
 40
0.0
  9
$TIMEZONE
 70
-8000
  9
$LIGHTGLYPHDISPLAY
280
1
  9
$TILEMODELIGHTSYNCH
280
1
  9
$CMATERIAL
347
20
  9
$SOLIDHIST
280
0
  9
$SHOWHIST
280
1
  9
$DWFFRAME
280
2
  9
$DGNFRAME
280
2
  9
$REALWORLDSCALE
290
1
  9
$INTERFERECOLOR
 62
256
  9
$CSHADOW
280
0
  9
$SHADOWPLANELOCATION
 40
0.0
  0
ENDSEC
  0
SECTION
  2
CLASSES
  0
CLASS
  1
ACDBDICTIONARYWDFLT
  2
AcDbDictionaryWithDefault
  3
ObjectDBX Classes
 90
0
 91
0
280
0
281
0
  0
CLASS
  1
SUN
  2
AcDbSun
  3
SCENEOE
 90
1153
 91
0
280
0
281
0
  0
CLASS
  1
VISUALSTYLE
  2
AcDbVisualStyle
  3
ObjectDBX Classes
 90
4095
 91
0
280
0
281
0
  0
CLASS
  1
MATERIAL
  2
AcDbMaterial
  3
ObjectDBX Classes
 90
1153
 91
0
280
0
281
0
  0
CLASS
  1
SCALE
  2
AcDbScale
  3
ObjectDBX Classes
 90
1153
 91
0
280
0
281
0
  0
CLASS
  1
TABLESTYLE
  2
AcDbTableStyle
  3
ObjectDBX Classes
 90
4095
 91
0
280
0
281
0
  0
CLASS
  1
MLEADERSTYLE
  2
AcDbMLeaderStyle
  3
ACDB_MLEADERSTYLE_CLASS
 90
4095
 91
0
280
0
281
0
  0
CLASS
  1
DICTIONARYVAR
  2
AcDbDictionaryVar
  3
ObjectDBX Classes
 90
0
 91
0
280
0
281
0
  0
CLASS
  1
CELLSTYLEMAP
  2
AcDbCellStyleMap
  3
ObjectDBX Classes
 90
1152
 91
0
280
0
281
0
  0
CLASS
  1
MENTALRAYRENDERSETTINGS
  2
AcDbMentalRayRenderSettings
  3
SCENEOE
 90
1024
 91
0
280
0
281
0
  0
CLASS
  1
ACDBDETAILVIEWSTYLE
  2
AcDbDetailViewStyle
  3
ObjectDBX Classes
 90
1025
 91
0
280
0
281
0
  0
CLASS
  1
ACDBSECTIONVIEWSTYLE
  2
AcDbSectionViewStyle
  3
ObjectDBX Classes
 90
1025
 91
0
280
0
281
0
  0
CLASS
  1
RASTERVARIABLES
  2
AcDbRasterVariables
  3
ISM
 90
0
 91
0
280
0
281
0
  0
CLASS
  1
LAYOUT
  2
AcDbLayout
  3
ObjectDBX Classes
 90
0
 91
0
280
0
281
0
  0
CLASS
  1
ACDBPLACEHOLDER
  2
AcDbPlaceHolder
  3
ObjectDBX Classes
 90
0
 91
0
280
0
281
0
  0
ENDSEC
  0
SECTION
  2
TABLES
  0
TABLE
  2
VPORT
  5
8
330
0
100
AcDbSymbolTable
 70
1
  0
VPORT
  5
23
330
8
100
AcDbSymbolTableRecord
100
AcDbViewportTableRecord
  2
*Active
 70
0
 10
0.0
 20
0.0
 11
1.0
 21
1.0
 12
0.0
 22
0.0
 13
0.0
 23
0.0
 14
0.5
 24
0.5
 15
0.5
 25
0.5
 16
0.0
 26
0.0
 36
1.0
 17
0.0
 27
0.0
 37
0.0
 40
1000.0
 41
1.34
 42
50.0
 43
0.0
 44
0.0
 50
0.0
 51
0.0
 71
0
 72
1000
 73
1
 74
3
 75
0
 76
0
 77
0
 78
0
281
0
 65
0
146
0.0
  0
ENDTAB
  0
TABLE
  2
LTYPE
  5
2
330
0
100
AcDbSymbolTable
 70
3
  0
LTYPE
  5
24
330
2
100
AcDbSymbolTableRecord
100
AcDbLinetypeTableRecord
  2
ByBlock
 70
0
  3

 72
65
 73
0
 40
0.0
  0
LTYPE
  5
25
330
2
100
AcDbSymbolTableRecord
100
AcDbLinetypeTableRecord
  2
ByLayer
 70
0
  3

 72
65
 73
0
 40
0.0
  0
LTYPE
  5
26
330
2
100
AcDbSymbolTableRecord
100
AcDbLinetypeTableRecord
  2
Continuous
 70
0
  3

 72
65
 73
0
 40
0.0
  0
ENDTAB
  0
TABLE
  2
LAYER
  5
1
330
0
100
AcDbSymbolTable
 70
2
  0
LAYER
  5
27
330
1
100
AcDbSymbolTableRecord
100
AcDbLayerTableRecord
  2
0
 70
0
 62
7
  6
Continuous
370
-3
390
13
347
21
  0
LAYER
  5
28
330
1
100
AcDbSymbolTableRecord
100
AcDbLayerTableRecord
  2
Defpoints
 70
0
 62
7
  6
Continuous
290
0
370
-3
390
13
347
21
  0
ENDTAB
  0
TABLE
  2
STYLE
  5
5
330
0
100
AcDbSymbolTable
 70
1
  0
STYLE
  5
29
330
5
100
AcDbSymbolTableRecord
100
AcDbTextStyleTableRecord
  2
Standard
 70
0
 40
0.0
 41
1.0
 50
0.0
 71
0
 42
2.5
  3
txt
  4

  0
ENDTAB
  0
TABLE
  2
VIEW
  5
7
330
0
100
AcDbSymbolTable
 70
0
  0
ENDTAB
  0
TABLE
  2
UCS
  5
6
330
0
100
AcDbSymbolTable
 70
0
  0
ENDTAB
  0
TABLE
  2
APPID
  5
3
330
0
100
AcDbSymbolTable
 70
3
  0
APPID
  5
2A
330
3
100
AcDbSymbolTableRecord
100
AcDbRegAppTableRecord
  2
ACAD
 70
0
  0
APPID
  5
4B
330
3
100
AcDbSymbolTableRecord
100
AcDbRegAppTableRecord
  2
HATCHBACKGROUNDCOLOR
 70
0
  0
APPID
  5
4C
330
3
100
AcDbSymbolTableRecord
100
AcDbRegAppTableRecord
  2
EZDXF
 70
0
  0
ENDTAB
  0
TABLE
  2
DIMSTYLE
  5
4
330
0
100
AcDbSymbolTable
 70
1
100
AcDbDimStyleTable
  0
DIMSTYLE
105
2B
330
4
100
AcDbSymbolTableRecord
100
AcDbDimStyleTableRecord
  2
Standard
 70
0
 40
1.0
 41
2.5
 42
0.625
 43
3.75
 44
1.25
 45
0.0
 46
0.0
 47
0.0
 48
0.0
 49
2.5
140
2.5
141
2.5
142
0.0
143
0.03937007874
144
1.0
145
0.0
146
1.0
147
0.625
148
0.0
 69
0
 70
0
 71
0
 72
0
 73
0
 74
0
 75
0
 76
0
 77
1
 78
8
 79
3
170
0
171
3
172
1
173
0
174
0
175
0
176
0
177
0
178
0
179
2
271
2
272
2
273
2
274
3
275
0
276
0
277
2
278
44
279
0
280
0
281
0
282
0
283
0
284
8
285
0
286
0
288
0
289
3
290
0
371
-2
372
-2
  0
ENDTAB
  0
TABLE
  2
BLOCK_RECORD
  5
9
330
0
100
AcDbSymbolTable
 70
2
  0
BLOCK_RECORD
  5
17
330
9
100
AcDbSymbolTableRecord
100
AcDbBlockTableRecord
  2
*Model_Space
340
1A
 70
0
280
1
281
0
  0
BLOCK_RECORD
  5
1B
330
9
100
AcDbSymbolTableRecord
100
AcDbBlockTableRecord
  2
*Paper_Space
340
1E
 70
0
280
1
281
0
  0
ENDTAB
  0
ENDSEC
  0
SECTION
  2
BLOCKS
  0
BLOCK
  5
18
330
17
100
AcDbEntity
  8
0
100
AcDbBlockBegin
  2
*Model_Space
 70
0
 10
0.0
 20
0.0
 30
0.0
  3
*Model_Space
  1

  0
ENDBLK
  5
19
330
17
100
AcDbEntity
  8
0
100
AcDbBlockEnd
  0
BLOCK
  5
1C
330
1B
100
AcDbEntity
  8
0
100
AcDbBlockBegin
  2
*Paper_Space
 70
0
 10
0.0
 20
0.0
 30
0.0
  3
*Paper_Space
  1

  0
ENDBLK
  5
1D
330
1B
100
AcDbEntity
  8
0
100
AcDbBlockEnd
  0
ENDSEC
  0
SECTION
  2
ENTITIES
  0
LWPOLYLINE
  5
2F
330
17
100
AcDbEntity
  8
0
100
AcDbPolyline
 90
201
 70
0
 10
503.11
 20
0.0
 10
503.0842752079765
 20
5.729494225060257
 10
502.9933032733644
 20
11.458402532172206
 10
502.83709420493625
 20
17.185981904623812
 10
502.61566647257854
 20
22.911489477677353
 10
502.329047005128
 20
28.63418263491863
 10
501.9772711871118
 20
34.35331910457672
 10
501.56038285438933
 20
40.06815705580157
 10
501.0784342886999
 20
45.777955194887085
 10
500.5356641697914
 20
51.482402583754876
 10
499.9374911775861
 20
57.18151558030835
 10
499.2744273657066
 20
62.87368107511931
 10
498.5465533965957
 20
68.55816020675711
 10
497.7539583456107
 20
74.23421504997579
 10
496.8967396901614
 20
79.90110871150681
 10
495.9750032977572
 20
85.55810542572628
 10
494.98886341296594
 20
91.20447065018351
 10
493.9384426432832
 20
96.83947116097865
 10
492.8320960760333
 20
102.46408501667098
 10
491.6669729367049
 20
108.07721847599291
 10
490.43791646334614
 20
113.6771027740061
 10
489.1450773243851
 20
119.26300968687362
 10
487.7886144832796
 20
124.83421270422008
 10
486.36869517902954
 20
130.3899871236216
 10
484.88549490561417
 20
135.92961014487457
 10
483.3391973903541
 20
141.45236096402996
 10
481.7299945712035
 20
146.95752086718204
 10
480.0710963676179
 20
152.4485046365357
 10
478.3508399567827
 20
157.92117002416254
 10
476.56819280920894
 20
163.3744240019445
 10
474.72337396111624
 20
168.80755524331317
 10
472.8166105591834
 20
174.2198548932583
 10
470.84813783266054
 20
179.61061666080843
 10
468.8181990644256
 20
184.9791369111964
 10
466.7270455609904
 20
190.32471475769808
 10
464.5783926579222
 20
195.64810759532375
 10
462.3813992370245
 20
200.95262432984387
 10
460.1238337291996
 20
206.232472643747
 10
457.8059730924545
 20
211.48696080380668
 10
455.4281021850962
 20
216.71540018598492
 10
452.9905137308311
 20
221.91710536566964
 10
450.4935082828326
 20
227.09139420752052
 10
447.93739418678246
 20
232.2375879549111
 10
445.32248754289105
 20
237.35501131895583
 10
442.65700573348545
 20
242.44731594617625
 10
439.94047735867423
 20
247.51373483401764
 10
437.16595525709243
 20
252.54971990688074
 10
434.3337803421229
 20
257.5546072595927
 10
431.4443011282257
 20
262.52773680534585
 10
428.49787368817556
 20
267.46845236273174
 10
425.49486160930405
 20
272.37610174229525
 10
422.43563594874956
 20
277.25003683259996
 10
419.3205751877213
 20
282.0896136857906
 10
416.16257950663953
 20
286.9028199862845
 10
412.95194339094496
 20
291.6825230678927
 10
409.6864063526487
 20
296.4263016846091
 10
406.3663703054766
 20
301.13352517332277
 10
402.9922444083906
 20
305.80356736684814
 10
399.56444501530194
 20
310.4358066771675
 10
396.0833956238291
 20
315.02962617811005
 10
392.5495268231044
 20
319.58441368745883
 10
388.9652352953127
 20
324.1011942101911
 10
385.3419047535758
 20
328.5888077791545
 10
381.66679748853727
 20
333.03591904017475
 10
377.94036618591093
 20
337.4419305922421
 10
374.1630704243986
 20
341.8062500932896
 10
370.33537661916193
 20
346.1282903397286
 10
366.45775796437493
 20
350.40746934535167
 10
362.5306943748676
 20
354.64321041959374
 10
358.55467242686524
 20
358.83494224514055
 10
354.5361244940259
 20
362.9881797400662
 10
350.4771022636386
 20
367.10440869538127
 10
346.3702961906674
 20
371.1752523002433
 10
342.2162137061503
 20
375.2001559232738
 10
338.01536867791
 20
379.1785706060227
 10
333.7682813471374
 20
383.10995313766074
 10
329.4754782641066
 20
386.99376612896265
 10
325.1374922230328
 20
390.82947808557094
 10
320.75486219607865
 20
394.61656348053174
 10
316.3365906635174
 20
398.36515329255985
 10
311.8774696459764
 20
402.06806765922494
 10
307.3750242743358
 20
405.7210689796304
 10
302.82981324876397
 20
409.3236505883928
 10
298.24240119209577
 20
412.8753120739668
 10
293.6133585798288
 20
416.3755593478475
 10
288.943261669311
 20
419.823904712991
 10
284.23269242813035
 20
423.2198669314401
 10
279.48264949163956
 20
426.56359863029024
 10
274.702185559444
 20
429.8679171744558
 10
269.8826964148055
 20
433.1186578704315
 10
265.0247825860546
 20
436.31536027994076
 10
260.12905002883065
 20
439.45757069631657
 10
255.19611005061626
 20
442.5448422084182
 10
250.2265792345199
 20
445.57673476369985
 10
245.22107936231697
 20
448.55281523042555
 10
240.18023733675628
 20
451.4726574590198
 10
235.10670726550865
 20
454.3397501372408
 10
230.0027224961699
 20
457.1571888337887
 10
224.86504784844826
 20
459.91728085207353
 10
219.69432776174693
 20
462.6196241426391
 10
214.4912114646841
 20
465.2638238993144
 10
209.25635289366434
 20
467.8494926161669
 10
203.9904106107746
 20
470.3762501435395
 10
198.69404772101456
 20
472.84372374316416
 10
193.36793178886998
 20
475.2515481423443
 10
188.01548201242787
 20
477.60634431003626
 10
182.6358907838497
 20
479.90458343699913
 10
177.22832944687067
 20
482.14221372488623
 10
171.79348102359214
 20
484.3188960827326
 10
166.33203263295437
 20
486.43429911885556
 10
160.84467540392384
 20
488.48809919020164
 10
155.33210438808644
 20
490.4799804507123
 10
149.79501847165963
 20
492.40963489870427
 10
144.23412028693468
 20
494.2767624232566
 10
138.65130049394756
 20
496.0853084510234
 10
133.04603954725917
 20
497.8309708308149
 10
127.41899429303645
 20
499.51327967063213
 10
121.77088101517982
 20
501.1319651305326
 10
116.10241931909721
 20
502.68676547164296
 10
110.41433204005041
 20
504.1774270968228
 10
104.70734515100717
 20
505.6037045902926
 10
98.98218767000947
 20
506.96536075621725
 10
93.23964569811548
 20
508.2624617322135
 10
87.48053704546093
 20
509.49533073349926
 10
81.70543634563008
 20
510.6629207565106
 10
75.91508379112625
 20
511.7650274080736
 10
70.11022215624142
 20
512.8014546909968
 10
64.2915967017855
 20
513.7720150363729
 10
58.45995507941627
 20
514.6765293347975
 10
52.61604723557918
 20
515.5148269665028
 10
46.76062531507176
 20
516.2867458303996
 10
40.89418728744588
 20
516.9888924920551
 10
35.017650763108556
 20
517.6218621349306
 10
29.131999558964974
 20
518.1880104178009
 10
23.237993762554087
 20
518.6872118166607
 10
17.336395138449813
 20
519.1193494565254
 10
11.427967029809151
 20
519.4843151333499
 10
5.513474259637476
 20
519.7820093348275
 10
-0.40631696821404
 20
520.0123412600622
 10
-6.33063916830769
 20
520.175228838113
 10
-12.258488116428161
 20
520.2606015201414
 10
-18.189049544713797
 20
520.2768995489059
 10
-24.12157112896062
 20
520.2255715038626
 10
-30.055281476646993
 20
520.1065748655961
 10
-35.989408481190715
 20
519.9198759166397
 10
-41.923179422416844
 20
519.6654497522212
 10
-47.85582106717594
 20
519.3432802898642
 10
-53.78655977010297
 20
518.9533602778381
 10
-59.71427833638994
 20
518.4927110025405
 10
-65.63668651369203
 20
517.95019445865
 10
-71.5544799105751
 20
517.3400106600369
 10
-77.46688516663397
 20
516.6621943870381
 10
-83.3731291155234
 20
515.9167892611039
 10
-89.27243888605896
 20
515.1038477448843
 10
-95.1640420033435
 20
514.2234311411586
 10
-101.04716648990913
 20
513.2756095906084
 10
-106.92104096685837
 20
512.2604620684318
 10
-112.78264324770264
 20
511.16787181146657
 10
-118.63064002951896
 20
509.9970890578461
 10
-124.46659350179769
 20
508.75938704389597
 10
-130.28973772612437
 20
507.45488827999054
 10
-136.09930799307722
 20
506.08372404517024
 10
-141.89454092263477
 20
504.6460343750308
 10
-147.67467456446806
 20
503.14196804846335
 10
-153.43894849810192
 20
501.5716825732457
 10
-159.18660393293413
 20
499.93534417048534
 10
-164.90981348925877
 20
498.2117675006261
 10
-170.6123752505982
 20
496.41674956697335
 10
-176.29543582190516
 20
494.5564485930847
 10
-181.95824771623467
 20
492.63107600033453
 10
-187.60006573353874
 20
490.6408517701843
 10
-193.22014705871223
 20
488.58600441950813
 10
-198.81775135937053
 20
486.4667709747949
 10
-204.3921408833507
 20
484.28339694522924
 10
-209.94150243369884
 20
482.03366088509966
 10
-215.4545100483133
 20
479.69446427012656
 10
-220.94146276381588
 20
477.29220795226195
 10
-226.40163919641526
 20
474.82718204140195
 10
-231.83432119142557
 20
472.2996849008063
 10
-237.23879391770467
 20
469.7100231111695
 10
-242.61434596169073
 20
467.0585114336115
 10
-247.96026942102918
 20
464.34547277159186
 10
-253.27585999777452
 20
461.5712381317511
 10
-258.55378841395145
 20
458.7243860293413
 10
-263.78920059554764
 20
455.7990010253664
 10
-268.9915125820436
 20
452.8138602575972
 10
-274.16004228889665
 20
449.76933826280367
 10
-279.2941118697088
 20
446.66581736395847
 10
-284.39304780511435
 20
443.50368762227674
 10
-289.4561809911243
 20
440.28334678824274
 10
-294.4828468269184
 20
437.00520025162604
 10
-299.4723853020682
 20
433.6696609904965
 10
-304.4088932848953
 20
430.2555980773581
 10
-309.29970127152126
 20
426.7759888545603
 10
-314.15073529553894
 20
423.24078482754027
 10
-318.96136340032433
 20
419.65044063101635
 10
-323.7309588258831
 20
416.0054180832677
 10
-328.45890009050754
 20
412.3061861267352
 10
-333.1445710717538
 20
408.5532207676952
 10
-337.7873610867306
 20
404.74700501501263
 10
-342.3866649716878
 20
400.88802881797955
  0
LWPOLYLINE
  5
30
330
17
100
AcDbEntity
  8
0
100
AcDbPolyline
 90
201
 70
0
 10
403.11
 20
0.0
 10
403.0907597430862
 20
4.590694430209348
 10
403.01924057281946
 20
9.180950634215439
 10
402.8954499751295
 20
13.77017326789705
 10
402.71940221552865
 20
18.357767100801254
 10
402.49111833749316
 20
22.943137093345854
 10
402.2106261599665
 20
27.525688473999775
 10
401.87796027398286
 20
32.10482681643126
 10
401.4931620384131
 20
36.67995811661397
 10
401.06045753351077
 20
41.2509185922086
 10
400.58525116471117
 20
45.817871603832266
 10
400.0580390380093
 20
50.37935087268023
 10
399.4788841971475
 20
54.934764176812436
 10
398.847856429995
 20
59.48352002032291
 10
398.16503226018676
 20
64.025027710142
 10
397.43049493788925
 20
68.55869743274272
 10
396.6443344296913
 20
73.08394033074067
 10
395.8066474076227
 20
77.60016857937782
 10
394.92576136941864
 20
82.10850533157371
 10
393.9987963004336
 20
86.60800161682215
 10
393.02056455182816
 20
91.09703309857187
 10
391.99118426239585
 20
95.57501562026773
 10
390.91078022743125
 20
100.04136635902664
 10
389.77948388367383
 20
104.49550390149253
 10
388.5974332933884
 20
108.93684831952187
 10
387.3647731275818
 20
113.36482124568899
 10
386.08165464836003
 20
117.77884594860176
 10
384.7612454850716
 20
122.18247872055542
 10
383.3918389160207
 20
126.57171833293594
 10
381.9723569097558
 20
130.94561226787488
 10
380.5029714033545
 20
135.30358918176566
 10
378.9838608532819
 20
139.6450796571177
 10
377.4152102138175
 20
143.96951627695336
 10
375.79721091463193
 20
148.27633369896265
 10
374.1300608375183
 20
152.56496872940673
 10
372.41742032874146
 20
156.83631583895192
 10
370.6683917233514
 20
161.0938203739179
 10
368.870685355379
 20
165.33182580454056
 10
367.02451854337653
 20
169.54977551492857
 10
365.1301149713476
 20
173.74711531044335
 10
363.1877046617804
 20
177.92329349050218
 10
361.197523947847
 20
182.07776092108153
 10
359.1598154447735
 20
186.20997110690982
 10
357.07482802038504
 20
190.31938026334166
 10
354.9507103314129
 20
194.4097707669689
 10
352.78692076807266
 20
198.48050555418317
 10
350.5764404839149
 20
202.52716568035532
 10
348.3195372413431
 20
206.54921554655954
 10
346.01648494743
 20
210.54612253087197
 10
343.6675636208315
 20
214.51735705887353
 10
341.2730593578917
 20
218.46239267378473
 10
338.833264297943
 20
222.38070610622412
 10
336.348476587805
 20
226.2717773435803
 10
333.8315146673435
 20
230.14371708263
 10
331.27258988588073
 20
233.98951473070548
 10
328.6693572345271
 20
237.80687016065212
 10
326.02213273228756
 20
241.59527285783267
 10
323.33123828072223
 20
245.3542158175752
 10
320.5970016249766
 20
249.0831956129613
 10
317.8197563140305
 20
252.781712462181
 10
314.99984166017094
 20
256.449270295447
 10
312.1395617523682
 20
260.08700918317606
 10
309.2502064061687
 20
263.7038831617428
 10
306.3189427224573
 20
267.288669803802
 10
303.3461269173516
 20
270.8408835438291
 10
300.33212083263044
 20
274.36004276939497
 10
297.2772918918811
 20
277.84566988634054
 10
294.1820130558907
 20
281.2972913834645
 10
291.04666277728893
 20
284.7144378967161
 10
287.8716249544456
 20
288.0966442728846
 10
284.6632280808253
 20
291.44953041796794
 10
281.4234187746573
 20
294.77468592110546
 10
278.1447812466062
 20
298.0638365663261
 10
274.82771552194987
 20
301.31652910056016
 10
271.47262691521973
 20
304.5323147139559
 10
268.07992598086247
 20
307.7107491015837
 10
264.6500284631805
 20
310.8513925245917
 10
261.1833552455602
 20
313.9538098708056
 10
257.6803322989926
 20
317.01757071476453
 10
254.14984802689077
 20
320.05289984365214
 10
250.5865793121289
 20
323.05270989831695
 10
246.98793510187298
 20
326.0128544639544
 10
243.3543568816841
 20
328.93291673226
 10
239.6862910440985
 20
331.8124848081009
 10
235.98418883395698
 20
334.65115176723856
 10
232.24850629305598
 20
337.4485157134445
 10
228.4797042041275
 20
340.2041798349991
 10
224.6786590640812
 20
342.9183797997074
 10
220.85430049633172
 20
345.60401461689645
 10
216.99790028616482
 20
348.24699983058815
 10
213.1099340582309
 20
350.8469538227409
 10
209.19088197498388
 20
353.4035002794091
 10
205.24122867752976
 20
355.9162682446223
 10
201.26146322583708
 20
358.38489217360296
 10
197.252079038316
 20
360.8090119853189
 10
193.21357383077276
 20
363.1882731143594
 10
189.14847171711241
 20
365.52623435682517
 10
185.05887526120088
 20
367.8260599048439
 10
180.9414177260137
 20
370.0801241914381
 10
176.79661123828032
 20
372.2880907942435
 10
172.62497197516393
 20
374.44962902314893
 10
168.42702010008827
 20
376.5644139689344
 10
164.2032796979828
 20
378.6321265511896
 10
159.95427870995337
 20
380.6524535655078
 10
155.6805488673854
 20
382.625087729947
 10
151.3853728836748
 20
384.55670645359083
 10
147.06780603240253
 20
386.4438358093781
 10
142.72688192261657
 20
388.2824773160771
 10
138.36314524348722
 20
390.0723436278579
 10
133.9771442007206
 20
391.81315351948274
 10
129.56943044776145
 20
393.504631929146
 10
125.14055901647501
 20
395.1465100005397
 10
120.69108824731882
 20
396.73852512414004
 10
116.22157971901193
 20
398.2804209777074
 10
111.73378254849933
 20
399.7761851674192
 10
107.22703517608917
 20
401.2215561069822
 10
102.70185198095156
 20
402.6161028494051
 10
98.15880634572277
 20
403.9595928748139
 10
93.5984745588121
 20
405.2518001346242
 10
89.02143574133537
 20
406.49250508757694
 10
84.42827177360519
 20
407.681494734949
 10
79.8195672211867
 20
408.8185626549325
 10
75.19596339157386
 20
409.9038041121515
 10
70.55813297902893
 20
410.93756979803356
 10
65.9065051977739
 20
411.91883853086375
 10
61.2416745363204
 20
412.84743008160706
 10
56.56423779923575
 20
413.7231709563673
 10
51.87479403080318
 20
414.54589442577014
 10
47.17394443831472
 20
415.3154405534795
 10
42.46229231500342
 20
416.0316562238446
 10
37.74044296262736
 20
416.6943951686712
 10
33.008747336916045
 20
417.30027811314733
 10
28.26797588273759
 20
417.8499127252427
 10
23.518965118827698
 20
418.3456654715116
 10
18.762327721028477
 20
418.7874199575946
 10
13.998677947807602
 20
419.1750667588377
 10
9.228631560936506
 20
419.50850344124433
 10
4.452805745895715
 20
419.78763458152486
 10
-0.32818096798057633
 20
420.0123717862395
 10
-5.113708787611738
 20
420.18263371003087
 10
-9.902921179825293
 20
420.28834884767645
 10
-14.695151547334106
 20
420.33795480370713
 10
-19.489795196888792
 20
420.3328958378506
 10
-24.286228308156037
 20
420.2731234300221
 10
-29.083826268837075
 20
420.15859618192286
 10
-33.88196375600669
 20
419.98927982878223
 10
-38.68001481761556
 20
419.7651472501725
 10
-43.47735295414808
 20
419.48617847989095
 10
-48.273007962311546
 20
419.1493804149907
 10
-53.06483640787897
 20
418.7435989877995
 10
-57.85368052509548
 20
418.2830164789149
 10
-62.63891336778072
 20
417.76764826677714
 10
-67.41990795337124
 20
417.19751690483366
 10
-72.19603734506265
 20
416.5726521243567
 10
-76.96667473400991
 20
415.8930908363219
 10
-81.73119352157747
 20
415.15887713234366
 10
-86.48896740162651
 20
414.3700622846689
 10
-91.23711893553852
 20
413.51650017689127
 10
-95.9744592245998
 20
412.5974100474161
 10
-100.70269450012114
 20
411.6240324903756
 10
-105.42120248443882
 20
410.5964557357198
 10
-110.1293617291807
 20
409.5147751482793
 10
-114.82655169709427
 20
408.3790932203123
 10
-119.51215284381323
 20
407.1895195631139
 10
-124.1855466995503
 20
405.9461708976866
 10
-128.84611595070652
 20
404.6491710444735
 10
-133.4861742025465
 20
403.2772906548637
 10
-138.1096600132459
 20
401.84628112042503
 10
-142.71785993387527
 20
400.3622534562103
 10
-147.31016587692199
 20
398.8253702844438
 10
-151.8859714770068
 20
397.2358012031215
 10
-156.44467217092335
 20
395.5937227678699
 10
-160.98566527748648
 20
393.8993184728873
 10
-165.50835007718098
 20
392.15277873096767
 10
-170.01104976937702
 20
390.3518254430539
 10
-174.48257413428442
 20
388.47330188191364
 10
-178.9333572792189
 20
386.5435491544871
 10
-183.36281220194837
 20
384.56279609134776
 10
-187.7703544227833
 20
382.5312782500698
 10
-192.1554020616787
 20
380.4492378874442
 10
-196.51737591502825
 20
378.3169239308116
 10
-200.8556995321446
 20
376.1345919485143
 10
-205.16979929141328
 20
373.90250411947125
 10
-209.4524757989064
 20
371.6091686475336
 10
-213.69900405553048
 20
369.24859830774494
 10
-217.9189283498167
 20
366.8394969866657
 10
-222.11169400377207
 20
364.3821645141056
 10
-226.27674971852358
 20
361.8769070600156
 10
-230.41354764679446
 20
359.32403709640465
 10
-234.52154346494945
 20
356.7238733584288
 10
-238.60019644460405
 20
354.0767408046543
 10
-242.64896952378297
 20
351.38297057650465
 10
-246.65208157933276
 20
348.62134851500724
 10
-250.6169841601478
 20
345.8047673469992
 10
-254.54972338114356
 20
342.9430925893439
 10
-258.4497863799938
 20
340.0366915262757
 10
-262.3166644885319
 20
337.0859372750085
 10
-266.14985329909314
 20
334.0912087378403
 10
-269.9488527303078
 20
331.0528905535044
 10
-273.7131670923403
 20
327.97137304777164
 10
-277.44230515156494
 20
324.84705218330964
  0
LINE
  5
31
330
17
100
AcDbEntity
  8
0
100
AcDbLine
 10
503.11
 20
0.0
 30
0.0
 11
403.11
 21
0.0
 31
0.0
  0
LINE
  5
32
330
17
100
AcDbEntity
  8
0
100
AcDbLine
 10
-342.3866649716878
 20
400.88802881797955
 30
0.0
 11
-277.44230515156494
 21
324.84705218330964
 31
0.0
  0
LINE
  5
33
330
17
100
AcDbEntity
  8
0
100
AcDbLine
 10
503.11
 20
0.0
 30
0.0
 11
403.11
 21
0.0
 31
0.0
  0
LINE
  5
34
330
17
100
AcDbEntity
  8
0
100
AcDbLine
 10
500.70482555195
 20
49.74662369439072
 30
0.0
 11
401.1947542933396
 21
39.859980274792825
 31
0.0
  0
LINE
  5
35
330
17
100
AcDbEntity
  8
0
100
AcDbLine
 10
493.50993855824095
 20
99.04121891536488
 30
0.0
 11
395.4648529203665
 21
79.36480709151172
 31
0.0
  0
LINE
  5
36
330
17
100
AcDbEntity
  8
0
100
AcDbLine
 10
481.5870975687716
 20
147.43537552190938
 30
0.0
 11
385.9676996597531
 21
118.16199608739943
 31
0.0
  0
LINE
  5
37
330
17
100
AcDbEntity
  8
0
100
AcDbLine
 10
465.04795824908746
 20
194.49175542514647
 30
0.0
 11
372.7911818943248
 21
155.90824577883112
 31
0.0
  0
LINE
  5
38
330
17
100
AcDbEntity
  8
0
100
AcDbLine
 10
444.05119128624847
 20
239.79210812131336
 30
0.0
 11
356.06102141222465
 21
192.27653166958083
 31
0.0
  0
LINE
  5
39
330
17
100
AcDbEntity
  8
0
100
AcDbLine
 10
418.77315430680983
 20
282.9277245727693
 30
0.0
 11
335.91176917714563
 21
226.9456662469676
 31
0.0
  0
LINE
  5
3A
330
17
100
AcDbEntity
  8
0
100
AcDbLine
 10
389.43400302338
 20
323.51289879877436
 30
0.0
 11
312.51332612060287
 21
259.6129029864226
 31
0.0
  0
LINE
  5
3B
330
17
100
AcDbEntity
  8
0
100
AcDbLine
 10
356.28588550326003
 20
361.1845004857737
 30
0.0
 11
286.0596298358062
 21
289.99269607733487
 31
0.0
  0
LINE
  5
3C
330
17
100
AcDbEntity
  8
0
100
AcDbLine
 10
319.6042926204774
 20
395.5964370903311
 30
0.0
 11
256.7605754093801
 21
317.8104023084267
 31
0.0
  0
LINE
  5
3D
330
17
100
AcDbEntity
  8
0
100
AcDbLine
 10
279.6896012749196
 20
426.41872442316185
 30
0.0
 11
224.84420138572838
 21
342.80065155015967
 31
0.0
  0
LINE
  5
3E
330
17
100
AcDbEntity
  8
0
100
AcDbLine
 10
236.8739917809927
 20
453.3464039978019
 30
0.0
 11
190.5643159684819
 21
364.71563097770377
 31
0.0
  0
LINE
  5
3F
330
17
100
AcDbEntity
  8
0
100
AcDbLine
 10
191.50851861359857
 20
476.0750043831591
 30
0.0
 11
154.18833570146788
 21
383.2999864774475
 31
0.0
  0
LINE
  5
40
330
17
100
AcDbEntity
  8
0
100
AcDbLine
 10
143.99181284012383
 20
494.35651895672896
 30
0.0
 11
116.02680743322466
 21
398.3463191205027
 31
0.0
  0
LINE
  5
41
330
17
100
AcDbEntity
  8
0
100
AcDbLine
 10
94.73930032457858
 20
507.93013404799024
 30
0.0
 11
76.40348962094997
 21
409.62551540857584
 31
0.0
  0
LINE
  5
42
330
17
100
AcDbEntity
  8
0
100
AcDbLine
 10
44.21138921025536
 20
516.6016193974805
 30
0.0
 11
35.68443802310511
 21
416.96582711653383
 31
0.0
  0
LINE
  5
43
330
17
100
AcDbEntity
  8
0
100
AcDbLine
 10
-7.103670657375768
 20
520.1914988378718
 30
0.0
 11
-5.7382103587874695
 21
420.20082168158393
 31
0.0
  0
LINE
  5
44
330
17
100
AcDbEntity
  8
0
100
AcDbLine
 10
-58.68388044391412
 20
518.5801522195429
 30
0.0
 11
-47.439388224497364
 21
419.2143563201115
 31
0.0
  0
LINE
  5
45
330
17
100
AcDbEntity
  8
0
100
AcDbLine
 10
-109.98174190393837
 20
511.7041220742466
 30
0.0
 11
-88.96839776210564
 21
413.9368506181151
 31
0.0
  0
LINE
  5
46
330
17
100
AcDbEntity
  8
0
100
AcDbLine
 10
-160.4338211205694
 20
499.5708949094745
 30
0.0
 11
-129.85752588127656
 21
404.36012782171485
 31
0.0
  0
LINE
  5
47
330
17
100
AcDbEntity
  8
0
100
AcDbLine
 10
-209.4609029353149
 20
482.23407982174234
 30
0.0
 11
-169.62126071542085
 21
390.5127469280756
 31
0.0
  0
LINE
  5
48
330
17
100
AcDbEntity
  8
0
100
AcDbLine
 10
-256.4962873677476
 20
459.8527558540471
 30
0.0
 11
-207.78366988265643
 21
372.51959549813654
 31
0.0
  0
LINE
  5
49
330
17
100
AcDbEntity
  8
0
100
AcDbLine
 10
-300.9834711265812
 20
432.6431690303158
 30
0.0
 11
-243.8751926037782
 21
350.5539217188564
 31
0.0
  0
LINE
  5
4A
330
17
100
AcDbEntity
  8
0
100
AcDbLine
 10
-342.3866649716878
 20
400.88802881797955
 30
0.0
 11
-277.44230515156494
 21
324.84705218330964
 31
0.0
  0
ENDSEC
  0
SECTION
  2
OBJECTS
  0
DICTIONARY
  5
A
330
0
100
AcDbDictionary
281
1
  3
ACAD_COLOR
350
B
  3
ACAD_GROUP
350
C
  3
ACAD_LAYOUT
350
D
  3
ACAD_MATERIAL
350
E
  3
ACAD_MLEADERSTYLE
350
F
  3
ACAD_MLINESTYLE
350
10
  3
ACAD_PLOTSETTINGS
350
11
  3
ACAD_PLOTSTYLENAME
350
12
  3
ACAD_SCALELIST
350
14
  3
ACAD_TABLESTYLE
350
15
  3
ACAD_VISUALSTYLE
350
16
  3
EZDXF_META
350
2D
  0
DICTIONARY
  5
B
330
A
100
AcDbDictionary
281
1
  0
DICTIONARY
  5
C
330
A
100
AcDbDictionary
281
1
  0
DICTIONARY
  5
D
330
A
100
AcDbDictionary
281
1
  3
Model
350
1A
  3
Layout1
350
1E
  0
DICTIONARY
  5
E
330
A
100
AcDbDictionary
281
1
  3
ByBlock
350
1F
  3
ByLayer
350
20
  3
Global
350
21
  0
DICTIONARY
  5
F
330
A
100
AcDbDictionary
281
1
  3
Standard
350
2C
  0
DICTIONARY
  5
10
330
A
100
AcDbDictionary
281
1
  3
Standard
350
22
  0
DICTIONARY
  5
11
330
A
100
AcDbDictionary
281
1
  0
ACDBDICTIONARYWDFLT
  5
12
330
A
100
AcDbDictionary
281
1
  3
Normal
350
13
100
AcDbDictionaryWithDefault
340
13
  0
ACDBPLACEHOLDER
  5
13
330
12
  0
DICTIONARY
  5
14
330
A
100
AcDbDictionary
281
1
  0
DICTIONARY
  5
15
330
A
100
AcDbDictionary
281
1
  0
DICTIONARY
  5
16
330
A
100
AcDbDictionary
281
1
  0
LAYOUT
  5
1A
330
D
100
AcDbPlotSettings
  1

  4
A3
  6

 40
7.5
 41
20.0
 42
7.5
 43
20.0
 44
420.0
 45
297.0
 46
0.0
 47
0.0
 48
0.0
 49
0.0
140
0.0
141
0.0
142
1.0
143
1.0
 70
1024
 72
1
 73
0
 74
5
  7

 75
16
 76
0
 77
2
 78
300
147
1.0
148
0.0
149
0.0
100
AcDbLayout
  1
Model
 70
1
 71
0
 10
0.0
 20
0.0
 11
420.0
 21
297.0
 12
0.0
 22
0.0
 32
0.0
 14
1e+20
 24
1e+20
 34
1e+20
 15
-1e+20
 25
-1e+20
 35
-1e+20
146
0.0
 13
0.0
 23
0.0
 33
0.0
 16
1.0
 26
0.0
 36
0.0
 17
0.0
 27
1.0
 37
0.0
 76
1
330
17
  0
LAYOUT
  5
1E
330
D
100
AcDbPlotSettings
  1

  4
A3
  6

 40
7.5
 41
20.0
 42
7.5
 43
20.0
 44
420.0
 45
297.0
 46
0.0
 47
0.0
 48
0.0
 49
0.0
140
0.0
141
0.0
142
1.0
143
1.0
 70
0
 72
1
 73
0
 74
5
  7

 75
16
 76
0
 77
2
 78
300
147
1.0
148
0.0
149
0.0
100
AcDbLayout
  1
Layout1
 70
1
 71
1
 10
0.0
 20
0.0
 11
420.0
 21
297.0
 12
0.0
 22
0.0
 32
0.0
 14
1e+20
 24
1e+20
 34
1e+20
 15
-1e+20
 25
-1e+20
 35
-1e+20
146
0.0
 13
0.0
 23
0.0
 33
0.0
 16
1.0
 26
0.0
 36
0.0
 17
0.0
 27
1.0
 37
0.0
 76
1
330
1B
  0
MATERIAL
  5
1F
102
{ACAD_REACTORS
330
E
102
}
330
E
100
AcDbMaterial
  1
ByBlock
  2

 70
0
 40
1.0
 71
1
 41
1.0
 91
-1023410177
 42
1.0
 72
1
  3

 73
1
 74
1
 75
1
 44
0.5
 73
0
 45
1.0
 46
1.0
 77
1
  4

 78
1
 79
1
170
1
 48
1.0
171
1
  6

172
1
173
1
174
1
140
1.0
141
1.0
175
1
  7

176
1
177
1
178
1
143
1.0
179
1
  8

270
1
271
1
272
1
145
1.0
146
1.0
273
1
  9

274
1
275
1
276
1
 42
1.0
 72
1
  3

 73
1
 74
1
 75
1
 94
63
  0
MATERIAL
  5
20
102
{ACAD_REACTORS
330
E
102
}
330
E
100
AcDbMaterial
  1
ByLayer
  2

 70
0
 40
1.0
 71
1
 41
1.0
 91
-1023410177
 42
1.0
 72
1
  3

 73
1
 74
1
 75
1
 44
0.5
 73
0
 45
1.0
 46
1.0
 77
1
  4

 78
1
 79
1
170
1
 48
1.0
171
1
  6

172
1
173
1
174
1
140
1.0
141
1.0
175
1
  7

176
1
177
1
178
1
143
1.0
179
1
  8

270
1
271
1
272
1
145
1.0
146
1.0
273
1
  9

274
1
275
1
276
1
 42
1.0
 72
1
  3

 73
1
 74
1
 75
1
 94
63
  0
MATERIAL
  5
21
102
{ACAD_REACTORS
330
E
102
}
330
E
100
AcDbMaterial
  1
Global
  2

 70
0
 40
1.0
 71
1
 41
1.0
 91
-1023410177
 42
1.0
 72
1
  3

 73
1
 74
1
 75
1
 44
0.5
 73
0
 45
1.0
 46
1.0
 77
1
  4

 78
1
 79
1
170
1
 48
1.0
171
1
  6

172
1
173
1
174
1
140
1.0
141
1.0
175
1
  7

176
1
177
1
178
1
143
1.0
179
1
  8

270
1
271
1
272
1
145
1.0
146
1.0
273
1
  9

274
1
275
1
276
1
 42
1.0
 72
1
  3

 73
1
 74
1
 75
1
 94
63
  0
MLINESTYLE
  5
22
102
{ACAD_REACTORS
330
10
102
}
330
10
100
AcDbMlineStyle
  2
Standard
 70
0
  3

 62
256
 51
90.0
 52
90.0
 71
2
 49
0.5
 62
256
  6
BYLAYER
 49
-0.5
 62
256
  6
BYLAYER
  0
MLEADERSTYLE
  5
2C
102
{ACAD_REACTORS
330
F
102
}
330
F
100
AcDbMLeaderStyle
179
2
170
2
171
1
172
0
 90
2
 40
0.0
 41
0.0
173
1
 91
-1056964608
 92
-2
290
1
 42
2.0
291
1
 43
8.0
  3
Standard
 44
4.0
300

342
29
174
1
175
1
176
0
178
1
 93
-1056964608
 45
4.0
292
0
297
0
 46
4.0
 94
-1056964608
 47
1.0
 49
1.0
140
1.0
294
1
141
0.0
177
0
142
1.0
295
0
296
0
143
3.75
271
0
272
9
273
9
  0
DICTIONARY
  5
2D
330
A
100
AcDbDictionary
280
1
281
1
  3
CREATED_BY_EZDXF
350
2E
  3
WRITTEN_BY_EZDXF
350
4D
  0
DICTIONARYVAR
  5
2E
330
2D
100
DictionaryVariables
280
0
  1
1.4.2 @ 2025-10-28T10:14:15.989438+00:00
  0
DICTIONARYVAR
  5
4D
330
2D
100
DictionaryVariables
280
0
  1
1.4.2 @ 2025-10-28T10:14:16.016674+00:00
  0
ENDSEC
  0
EOF
